<svg width="20" height="20" viewBox="0 0 20 20" fill="none" xmlns="http://www.w3.org/2000/svg">
<path d="M5.18295 13.9324C4.93894 14.1765 4.93903 14.5722 5.18316 14.8162C5.42728 15.0602 5.82299 15.0601 6.067 14.816L9.92569 10.9577C9.94523 10.9381 9.97176 10.9271 9.99943 10.9271C10.0271 10.9271 10.0536 10.9381 10.0732 10.9577L13.9319 14.8168C14.0897 14.9748 14.3198 15.0365 14.5355 14.9787C14.7512 14.921 14.9197 14.7526 14.9775 14.5369C15.0354 14.3212 14.9738 14.0911 14.8159 13.9332L10.9576 10.0733C10.9381 10.0537 10.927 10.0272 10.927 9.99952C10.927 9.97185 10.9381 9.94531 10.9576 9.92577L14.8167 6.06709C15.0608 5.82273 15.0605 5.42684 14.8161 5.18282C14.5718 4.93881 14.1759 4.93909 13.9319 5.18345L10.0732 9.0413C10.0536 9.06089 10.0271 9.0719 9.99943 9.0719C9.97176 9.0719 9.94523 9.06089 9.92569 9.0413L6.067 5.18345C5.82299 4.93932 5.42728 4.93923 5.18316 5.18324C4.93903 5.42725 4.93894 5.82296 5.18295 6.06709L9.04121 9.92577C9.0608 9.94531 9.07181 9.97185 9.07181 9.99952C9.07181 10.0272 9.0608 10.0537 9.04121 10.0733L5.18295 13.9324Z" fill="#495A7A"/>
</svg>
