<svg width="21" height="20" viewBox="0 0 21 20" fill="none" xmlns="http://www.w3.org/2000/svg">
<path fill-rule="evenodd" clip-rule="evenodd" d="M20.5 10C20.5 9.44772 20.0523 9 19.5 9H1.5C0.947716 9 0.5 9.44772 0.5 10C0.5 10.5523 0.947716 11 1.5 11H19.5C20.0523 11 20.5 10.5523 20.5 10Z" fill="#132430"/>
<path fill-rule="evenodd" clip-rule="evenodd" d="M12.7929 3.29289C12.4024 3.68342 12.4024 4.31658 12.7929 4.70711L18.0858 10L12.7929 15.2929C12.4024 15.6834 12.4024 16.3166 12.7929 16.7071C13.1834 17.0976 13.8166 17.0976 14.2071 16.7071L20.2071 10.7071C20.5976 10.3166 20.5976 9.68342 20.2071 9.29289L14.2071 3.29289C13.8166 2.90237 13.1834 2.90237 12.7929 3.29289Z" fill="#132430"/>
</svg>
