<svg width="10" height="10" viewBox="0 0 10 10" fill="none" xmlns="http://www.w3.org/2000/svg">
<path d="M4.98817 8.26172C4.71248 8.26207 4.44999 8.13872 4.26779 7.92319L0.180055 3.08313C-0.0886537 2.74955 -0.0525719 2.25353 0.261322 1.96594C0.575216 1.67835 1.05211 1.70439 1.33542 2.02458L4.90984 6.25703C4.92962 6.28054 4.95817 6.29401 4.98817 6.29401C5.01818 6.29401 5.04673 6.28054 5.0665 6.25703L8.64093 2.02458C8.8204 1.80179 9.10163 1.69773 9.37581 1.75267C9.64998 1.80761 9.87408 2.01293 9.96139 2.28918C10.0487 2.56543 9.98552 2.86927 9.79629 3.08313L5.70981 7.92146C5.5273 8.13751 5.26445 8.26144 4.98817 8.26172Z" fill="#495A7A"/>
</svg>
